HIERARCHY
ROOT Hips
{
	OFFSET 0.000000 89.005402 0.000000
	CHANNELS 6 Xposition Yposition Zposition Xrotation Yrotation Zrotation
	JOINT Spine
	{
		OFFSET 0.116900 10.681000 0.373400
		CHANNELS 3 Xrotation Yrotation Zrotation
		JOINT Spine1
		{
			OFFSET 0.000000 13.840401 0.053500
			CHANNELS 3 Xrotation Yrotation Zrotation
			JOINT Spine2
			{
				OFFSET 0.000000 14.712700 -0.366200
				CHANNELS 3 Xrotation Yrotation Zrotation
				JOINT Neck
				{
					OFFSET 0.000000 35.415497 -3.314200
					CHANNELS 3 Xrotation Yrotation Zrotation
					JOINT Head
					{
						OFFSET 0.000000 16.899200 1.218300
						CHANNELS 3 Xrotation Yrotation Zrotation
						JOINT HeadTop_End
						{
							OFFSET 0.000000 22.206207 2.192500
							CHANNELS 3 Xrotation Yrotation Zrotation
							End Site
							{
								OFFSET 0.000000 22.314178 0.000000
							}
						}
					}
				}
				JOINT LeftShoulder
				{
					OFFSET 12.896400 26.716293 -4.548400
					CHANNELS 3 Xrotation Yrotation Zrotation
					JOINT LeftArm
					{
						OFFSET 19.027000 -4.857010 -1.718400
						CHANNELS 3 Xrotation Yrotation Zrotation
						JOINT LeftForeArm
						{
							OFFSET 24.179897 0.000000 0.000000
							CHANNELS 3 Xrotation Yrotation Zrotation
							JOINT LeftHand
							{
								OFFSET 27.156403 0.000000 0.000000
								CHANNELS 3 Xrotation Yrotation Zrotation
								JOINT LeftHandIndex1
								{
									OFFSET 16.441200 0.000000 0.000000
									CHANNELS 3 Xrotation Yrotation Zrotation
									JOINT LeftHandIndex2
									{
										OFFSET 4.821899 0.000000 0.000000
										CHANNELS 3 Xrotation Yrotation Zrotation
										JOINT LeftHandIndex3
										{
											OFFSET 6.386497 0.000000 0.000000
											CHANNELS 3 Xrotation Yrotation Zrotation
											JOINT LeftHandIndex4
											{
												OFFSET 5.188988 0.000000 0.000000
												CHANNELS 3 Xrotation Yrotation Zrotation
												End Site
												{
													OFFSET -0.178703 5.185913 0.000177
												}
											}
										}
									}
								}
								JOINT LeftHandThumb1
								{
									OFFSET 6.534897 -5.032593 5.900300
									CHANNELS 3 Xrotation Yrotation Zrotation
									JOINT LeftHandThumb2
									{
										OFFSET 3.818176 -2.204422 2.204423
										CHANNELS 3 Xrotation Yrotation Zrotation
										JOINT LeftHandThumb3
										{
											OFFSET 3.252098 -1.877594 1.877601
											CHANNELS 3 Xrotation Yrotation Zrotation
											JOINT LeftHandThumb4
											{
												OFFSET 5.251778 -3.032120 3.032117
												CHANNELS 3 Xrotation Yrotation Zrotation
												End Site
												{
													OFFSET 0.000023 6.780014 0.000000
												}
											}
										}
									}
								}
							}
						}
					}
				}
				JOINT RightShoulder
				{
					OFFSET -12.896300 26.716293 -4.548400
					CHANNELS 3 Xrotation Yrotation Zrotation
					JOINT RightArm
					{
						OFFSET -19.027000 -4.857010 -1.718400
						CHANNELS 3 Xrotation Yrotation Zrotation
						JOINT RightForeArm
						{
							OFFSET -24.179897 0.000000 0.000000
							CHANNELS 3 Xrotation Yrotation Zrotation
							JOINT RightHand
							{
								OFFSET -27.156403 0.000000 0.000000
								CHANNELS 3 Xrotation Yrotation Zrotation
								JOINT RightHandThumb1
								{
									OFFSET -6.591202 -4.852203 5.988100
									CHANNELS 3 Xrotation Yrotation Zrotation
									JOINT RightHandThumb2
									{
										OFFSET -3.818176 -2.204422 2.204423
										CHANNELS 3 Xrotation Yrotation Zrotation
										JOINT RightHandThumb3
										{
											OFFSET -3.252098 -1.877594 1.877601
											CHANNELS 3 Xrotation Yrotation Zrotation
											JOINT RightHandThumb4
											{
												OFFSET -5.251778 -3.032120 3.032117
												CHANNELS 3 Xrotation Yrotation Zrotation
												End Site
												{
													OFFSET -0.000023 6.780014 0.000000
												}
											}
										}
									}
								}
								JOINT RightHandIndex1
								{
									OFFSET -16.029404 0.000000 0.000000
									CHANNELS 3 Xrotation Yrotation Zrotation
									JOINT RightHandIndex2
									{
										OFFSET -5.213303 0.000000 0.000000
										CHANNELS 3 Xrotation Yrotation Zrotation
										JOINT RightHandIndex3
										{
											OFFSET -6.386528 0.000000 0.000000
											CHANNELS 3 Xrotation Yrotation Zrotation
											JOINT RightHandIndex4
											{
												OFFSET -5.189026 0.000000 0.000000
												CHANNELS 3 Xrotation Yrotation Zrotation
												End Site
												{
													OFFSET 0.236702 5.183624 0.001972
												}
											}
										}
									}
								}
							}
						}
					}
				}
			}
		}
	}
	JOINT LeftUpLeg
	{
		OFFSET 14.073000 -7.904099 -1.463000
		CHANNELS 3 Xrotation Yrotation Zrotation
		JOINT LeftLeg
		{
			OFFSET -0.109806 -34.073280 4.093200
			CHANNELS 3 Xrotation Yrotation Zrotation
			JOINT LeftFoot
			{
				OFFSET 0.109806 -29.899420 -6.319000
				CHANNELS 3 Xrotation Yrotation Zrotation
				JOINT LeftToeBase
				{
					OFFSET 1.551100 -14.988700 20.535801
					CHANNELS 3 Xrotation Yrotation Zrotation
					JOINT LeftToe_End
					{
						OFFSET 0.221200 0.570800 13.248301
						CHANNELS 3 Xrotation Yrotation Zrotation
						End Site
						{
							OFFSET 0.000000 13.262435 0.000000
						}
					}
				}
			}
		}
	}
	JOINT RightUpLeg
	{
		OFFSET -13.839300 -7.904099 -1.463000
		CHANNELS 3 Xrotation Yrotation Zrotation
		JOINT RightLeg
		{
			OFFSET 0.109694 -34.073219 4.093300
			CHANNELS 3 Xrotation Yrotation Zrotation
			JOINT RightFoot
			{
				OFFSET -0.109694 -29.899384 -6.319200
				CHANNELS 3 Xrotation Yrotation Zrotation
				JOINT RightToeBase
				{
					OFFSET -1.551100 -14.988700 20.535801
					CHANNELS 3 Xrotation Yrotation Zrotation
					JOINT RightToe_End
					{
						OFFSET -0.221200 0.570900 13.248299
						CHANNELS 3 Xrotation Yrotation Zrotation
						End Site
						{
							OFFSET 0.000000 13.262440 0.000000
						}
					}
				}
			}
		}
	}
}
MOTION
Frames: 4
Frame Time: 0.033333
-7.277169 80.107018 24.047812 -16.823159 -8.855654 1.073132 8.432267 0.949192 1.548653 4.374127 0.115554 -0.283084 4.374974 0.094796 -0.277052 2.096757 2.179980 -2.949209 -3.002063 8.619087 -3.941034 0.000000 0.000000 -0.000000 1.242807 -3.104207 -4.250043 -35.432624 -46.657575 -49.311937 0.000006 -9.440316 -0.000009 -79.407868 0.253753 4.211134 0.038605 0.729630 -6.057705 1.051379 3.662049 -32.028482 0.038599 0.729645 -6.057696 -0.000005 -0.000001 0.000001 -1.018819 4.708183 -0.966466 3.939050 7.948719 0.746813 -0.579466 1.574999 2.538716 0.000003 0.000002 0.000001 2.000101 7.355557 2.082304 -39.910414 24.161719 79.453658 0.000017 40.810022 -0.000025 -50.763079 -1.362278 -7.382991 -1.922229 -3.395775 -7.785235 4.637193 -8.634122 -0.225417 -1.273751 0.137314 -2.094887 0.000001 0.000001 0.000001 0.000583 -0.089283 0.732817 0.053710 -0.864518 7.112464 0.000589 -0.089299 0.732821 0.000001 0.000001 -0.000001 -15.838457 7.252359 -11.012765 23.689814 -0.622303 -1.607516 9.663319 -0.094804 11.061046 -2.070470 0.000001 -0.000001 -0.000000 0.000001 0.000000 -5.375951 2.013305 1.053215 63.743895 2.077178 -2.566043 -21.714580 2.241206 -3.726202 -19.651421 0.092357 -0.489778 0.000000 -0.000000 0.000000 
-7.895845 80.130592 23.994511 -16.629958 -7.242103 1.389822 8.144883 0.746818 1.297168 4.419442 0.090173 -0.085587 4.419758 0.075981 -0.081086 2.321011 2.015976 -2.934163 -3.020052 7.837394 -3.848116 -0.000000 0.000000 0.000000 1.298518 -3.384007 -4.600702 -35.705804 -46.501762 -49.576651 -0.000005 -9.429676 0.000000 -79.405846 0.355263 3.954602 0.038699 0.730557 -6.065296 1.053272 3.665034 -32.058097 0.038707 0.730559 -6.065281 0.000000 0.000001 -0.000001 -1.017984 4.709590 -0.976658 3.939048 7.948707 0.746813 -0.579462 1.575008 2.538717 -0.000000 0.000002 -0.000000 1.866487 6.694012 1.538458 -38.615079 24.707904 79.405081 0.000028 41.875900 -0.000015 -50.781548 -1.218485 -7.365855 -1.923312 -3.392886 -7.803781 4.637181 -8.634136 -0.225395 -1.273756 0.137318 -2.094887 -0.000000 -0.000002 -0.000001 0.000644 -0.095172 0.780996 0.055789 -0.880848 7.247871 0.000654 -0.095187 0.780970 0.000002 0.000001 0.000001 -15.984888 7.614677 -10.914155 23.630493 -2.671839 -1.656188 10.084431 -0.023494 11.049155 -2.508139 -0.000002 -0.000000 -0.000000 0.000001 0.000000 -4.949634 3.232331 0.494139 62.045022 2.821311 -4.013545 -23.066037 1.241743 -1.699241 -17.331940 0.021373 -0.173075 0.000000 -0.000000 -0.000000 
-8.422559 80.265404 23.481323 -15.812286 -5.559721 1.817639 7.742597 0.536838 0.991068 4.389529 0.062935 0.072215 4.389579 0.055189 0.075112 2.495924 1.859103 -3.017825 -3.505573 6.946766 -3.548972 -0.000000 0.000000 0.000000 1.310468 -3.437752 -4.701249 -36.084477 -46.304294 -50.067001 0.000001 -9.552577 0.000000 -79.068312 0.471369 3.826353 0.038774 0.731204 -6.070612 1.054607 3.667181 -32.078834 0.038769 0.731193 -6.070614 -0.000002 -0.000001 -0.000002 -1.017405 4.710575 -0.983770 3.939073 7.948725 0.746819 -0.579474 1.575014 2.538715 -0.000000 -0.000001 -0.000002 1.793344 6.392392 0.953902 -37.540612 24.915569 79.141272 -0.000035 42.676029 0.000040 -50.938554 -0.795158 -7.348567 -1.926669 -3.384074 -7.860356 4.637205 -8.634128 -0.225415 -1.273752 0.137308 -2.094869 0.000002 0.000000 0.000000 0.000620 -0.092909 0.762446 0.054993 -0.874558 7.195749 0.000614 -0.092934 0.762444 0.000003 -0.000002 0.000001 -16.638645 7.103449 -11.113021 22.034800 -3.883784 -1.616873 11.732318 0.131256 10.719521 -2.435336 0.000004 0.000006 -0.000000 -0.000000 -0.000000 -3.720470 3.413332 0.066548 58.356945 4.875698 -4.590841 -25.439070 2.929851 -2.250085 -12.933078 0.003891 -0.081235 0.000000 -0.000001 -0.000000 
-8.889486 80.481422 22.427410 -14.456082 -3.749738 2.157866 7.425368 0.340667 0.906014 4.338689 0.034741 0.068299 4.338745 0.028776 0.069909 2.803322 1.663493 -3.093944 -5.324808 5.974080 -3.082501 0.000000 0.000000 -0.000000 1.317700 -3.579707 -4.344642 -36.736043 -46.041759 -50.689778 0.000008 -9.581139 0.000006 -78.207155 0.201282 3.629173 0.038507 0.728638 -6.049340 1.049326 3.658725 -31.996035 0.038499 0.728645 -6.049356 -0.000001 -0.000001 -0.000001 -1.019722 4.706621 -0.955295 3.939073 7.948711 0.746831 -0.579472 1.574997 2.538726 -0.000000 -0.000001 -0.000001 1.835783 6.675182 0.703865 -36.749512 24.688438 77.889298 0.000013 43.483569 -0.000013 -50.441883 -0.590437 -6.992629 -1.926463 -3.384637 -7.856777 4.637207 -8.634120 -0.225417 -1.273768 0.137314 -2.094856 0.000001 0.000001 0.000000 0.000524 -0.085994 0.705691 0.052585 -0.855246 7.036098 0.000521 -0.086008 0.705689 0.000001 -0.000001 -0.000000 -17.734957 6.075963 -11.504411 18.803309 -4.518016 -1.373668 14.878543 0.308314 10.124359 -2.181161 0.000002 0.000002 -0.000000 -0.000001 -0.000000 -2.889129 3.441913 -0.250294 53.670896 5.545421 -4.117198 -27.235009 5.310513 -2.458670 -8.430331 0.000283 -0.034343 -0.000000 -0.000001 -0.000000 
